<?xml version="1.0" encoding="UTF-8"?>
<!DOCTYPE svg PUBLIC "-//W3C//DTD SVG 1.1//EN" "http://www.w3.org/Graphics/SVG/1.1/DTD/svg11.dtd">
<svg xmlns="http://www.w3.org/2000/svg" version="1.1" width="982px" height="987px" style="shape-rendering:geometricPrecision; text-rendering:geometricPrecision; image-rendering:optimizeQuality; fill-rule:evenodd; clip-rule:evenodd" xmlns:xlink="http://www.w3.org/1999/xlink">
<g><path style="opacity:1" fill="#be7f72" d="M 487.5,224.5 C 486.167,224.5 484.833,224.5 483.5,224.5C 478.752,224.275 474.085,224.775 469.5,226C 470.5,226.333 471.5,226.667 472.5,227C 468.638,227.645 464.804,227.479 461,226.5C 455.755,227.353 451.088,229.353 447,232.5C 446.329,231.748 445.496,231.414 444.5,231.5C 458.077,224.293 472.41,221.959 487.5,224.5 Z"/></g>
<g><path style="opacity:1" fill="#cea98a" d="M 483.5,224.5 C 487.312,228.019 491.978,229.519 497.5,229C 501.939,231.112 506.606,232.612 511.5,233.5C 511.972,236.815 513.805,239.149 517,240.5C 518.363,245.429 521.53,248.263 526.5,249C 528,251.167 529.5,253.333 531,255.5C 531.103,261.433 532.936,266.767 536.5,271.5C 541.031,273.362 544.698,272.362 547.5,268.5C 550.813,266.833 553.813,264.833 556.5,262.5C 558.467,262.261 560.301,262.594 562,263.5C 571.102,260.602 580.102,260.935 589,264.5C 593.186,262.677 596.353,263.844 598.5,268C 602.167,268.333 605.833,268.667 609.5,269C 614.523,271.843 619.523,274.677 624.5,277.5C 627.505,280.854 631.005,283.854 635,286.5C 635.872,289.856 637.372,292.856 639.5,295.5C 642.481,302.424 645.481,309.424 648.5,316.5C 649.022,319.813 649.356,323.146 649.5,326.5C 648.135,333.727 647.301,341.061 647,348.5C 646.343,352.005 644.843,355.005 642.5,357.5C 641.731,360.115 641.397,362.781 641.5,365.5C 641.5,365.833 641.5,366.167 641.5,366.5C 636.987,367.935 633.987,370.935 632.5,375.5C 629.81,377.156 627.477,379.156 625.5,381.5C 622.914,382.48 620.247,382.813 617.5,382.5C 617.579,383.93 617.246,385.264 616.5,386.5C 609.31,389.839 601.977,392.672 594.5,395C 592.937,395.759 591.937,396.926 591.5,398.5C 587.5,399.167 583.5,399.833 579.5,400.5C 578.833,401.167 578.167,401.833 577.5,402.5C 576.504,402.414 575.671,402.748 575,403.5C 574.376,407.111 572.876,410.278 570.5,413C 570.736,426.454 570.736,439.954 570.5,453.5C 565.472,453.461 560.639,452.461 556,450.5C 554.564,450.559 553.231,450.892 552,451.5C 541.13,450.762 530.296,449.595 519.5,448C 486.5,447.333 453.5,447.333 420.5,448C 412.941,450.047 405.274,450.713 397.5,450C 396.684,442.579 396.184,435.079 396,427.5C 395.939,424.723 394.772,422.723 392.5,421.5C 392.758,416.425 391.091,412.092 387.5,408.5C 376.449,407.875 365.449,406.875 354.5,405.5C 353.41,404.143 352.076,403.143 350.5,402.5C 350.5,401.5 350.5,400.5 350.5,399.5C 345.999,399.904 342.999,397.904 341.5,393.5C 336.886,391.036 332.886,387.87 329.5,384C 328.552,383.517 327.552,383.351 326.5,383.5C 324.853,379.533 323.186,375.533 321.5,371.5C 322.444,369.863 321.777,368.863 319.5,368.5C 319.985,355.505 320.318,342.505 320.5,329.5C 321.449,324.28 323.449,319.614 326.5,315.5C 331.23,312.77 334.896,309.104 337.5,304.5C 340.98,301.854 344.314,299.021 347.5,296C 350.117,295.178 352.784,294.678 355.5,294.5C 355.285,292.821 355.952,291.821 357.5,291.5C 360.173,290.297 362.84,290.297 365.5,291.5C 367.111,290.68 367.778,289.346 367.5,287.5C 375.833,287.5 384.167,287.5 392.5,287.5C 392.36,289.124 393.027,290.29 394.5,291C 397.856,292.186 401.189,292.353 404.5,291.5C 406.088,285.293 406.921,278.96 407,272.5C 409.777,267.718 412.11,262.718 414,257.5C 420.146,252.355 425.979,246.855 431.5,241C 433.134,240.506 434.801,240.34 436.5,240.5C 436.809,237.654 438.475,236.154 441.5,236C 442.748,234.6 443.748,233.1 444.5,231.5C 445.496,231.414 446.329,231.748 447,232.5C 451.088,229.353 455.755,227.353 461,226.5C 464.804,227.479 468.638,227.645 472.5,227C 471.5,226.667 470.5,226.333 469.5,226C 474.085,224.775 478.752,224.275 483.5,224.5 Z"/></g>
<g><path style="opacity:0.88" fill="#cf9383" d="M 483.5,224.5 C 484.833,224.5 486.167,224.5 487.5,224.5C 496.422,225.305 504.422,228.305 511.5,233.5C 506.606,232.612 501.939,231.112 497.5,229C 491.978,229.519 487.312,228.019 483.5,224.5 Z"/></g>
<g><path style="opacity:0.255" fill="#9c4046" d="M 587.5,247.5 C 587.666,243.154 587.499,238.821 587,234.5C 586.823,238.356 586.323,242.023 585.5,245.5C 585.777,242.552 585.444,239.719 584.5,237C 585.147,235.391 585.98,233.891 587,232.5C 588.975,234.17 589.809,236.336 589.5,239C 589.511,242.116 588.845,244.949 587.5,247.5 Z"/></g>
<g><path style="opacity:0.035" fill="#701d1c" d="M 560.5,237.5 C 559.833,237.5 559.5,237.833 559.5,238.5C 557.122,236.243 554.455,235.91 551.5,237.5C 552.312,236.007 553.645,235.34 555.5,235.5C 557.557,235.436 559.223,236.102 560.5,237.5 Z"/></g>
<g><path style="opacity:0.757" fill="#c56f71" d="M 599.5,234.5 C 603.367,233.775 606.034,235.108 607.5,238.5C 607.333,239.167 607.167,239.833 607,240.5C 605.657,236.726 603.157,235.726 599.5,237.5C 597.738,241.002 597.238,244.668 598,248.5C 601.065,249.411 603.898,249.411 606.5,248.5C 604.796,250.849 602.463,251.849 599.5,251.5C 595.996,251.208 594.329,249.208 594.5,245.5C 594.936,242.821 595.436,240.155 596,237.5C 596.422,235.574 597.589,234.574 599.5,234.5 Z"/></g>
<g><path style="opacity:0.035" fill="#812527" d="M 562.5,234.5 C 563.455,236.746 564.122,239.079 564.5,241.5C 563.542,241.047 562.708,240.381 562,239.5C 560.031,242.124 558.198,242.124 556.5,239.5C 557.496,239.414 558.329,239.748 559,240.5C 559.464,239.906 559.631,239.239 559.5,238.5C 560.167,238.5 560.5,238.167 560.5,237.5C 561.167,236.5 561.833,235.5 562.5,234.5 Z"/></g>
<g><path style="opacity:0.139" fill="#782024" d="M 599.5,234.5 C 606.734,232.439 610.067,235.106 609.5,242.5C 611.653,241.427 613.653,241.427 615.5,242.5C 610.229,243.691 607.896,247.024 608.5,252.5C 607.778,252.082 607.278,251.416 607,250.5C 604.561,252.498 602.061,252.831 599.5,251.5C 602.463,251.849 604.796,250.849 606.5,248.5C 603.898,249.411 601.065,249.411 598,248.5C 597.238,244.668 597.738,241.002 599.5,237.5C 603.157,235.726 605.657,236.726 607,240.5C 607.167,239.833 607.333,239.167 607.5,238.5C 606.034,235.108 603.367,233.775 599.5,234.5 Z M 609.5,242.5 C 607.575,244.756 605.241,246.589 602.5,248C 601.216,248.684 600.049,248.517 599,247.5C 598.137,243.961 598.97,240.961 601.5,238.5C 603.982,240.344 606.649,241.677 609.5,242.5 Z"/></g>
<g><path style="opacity:0.067" fill="#7c2726" d="M 572.5,247.5 C 572.838,242.814 573.005,238.147 573,233.5C 572.218,236.31 571.384,238.977 570.5,241.5C 570.508,238.455 570.841,235.455 571.5,232.5C 572.5,232.5 573.5,232.5 574.5,232.5C 574.666,236.846 574.499,241.179 574,245.5C 573.722,246.416 573.222,247.082 572.5,247.5 Z"/></g>
<g><path style="opacity:0.027" fill="#792525" d="M 556.5,239.5 C 554.91,239.628 553.577,240.295 552.5,241.5C 555.758,242.853 559.092,244.02 562.5,245C 563.807,246.943 563.807,248.777 562.5,250.5C 562.714,248.856 562.38,247.356 561.5,246C 557.806,245.199 554.306,244.032 551,242.5C 551.343,238.788 553.176,237.788 556.5,239.5 Z"/></g>
<g><path style="opacity:0.655" fill="#ce7a79" d="M 572.5,247.5 C 572.672,248.492 572.338,249.158 571.5,249.5C 570.624,249.631 569.957,249.298 569.5,248.5C 570.374,246.253 570.708,243.92 570.5,241.5C 571.384,238.977 572.218,236.31 573,233.5C 573.005,238.147 572.838,242.814 572.5,247.5 Z"/></g>
<g><path style="opacity:0.545" fill="#ca7171" d="M 587.5,247.5 C 585.199,250.587 582.199,251.087 578.5,249C 575.879,247.634 575.212,245.801 576.5,243.5C 578.026,244.105 579.026,245.271 579.5,247C 580.5,247.167 581.5,247.333 582.5,247.5C 584.03,247.36 585.03,246.693 585.5,245.5C 586.323,242.023 586.823,238.356 587,234.5C 587.499,238.821 587.666,243.154 587.5,247.5 Z"/></g>
<g><path style="opacity:0.62" fill="#da8282" d="M 564.5,234.5 C 565.629,237.883 566.963,241.216 568.5,244.5C 568.333,245.167 568.167,245.833 568,246.5C 567.303,244.416 566.136,242.749 564.5,241.5C 564.122,239.079 563.455,236.746 562.5,234.5C 562.938,233.494 563.604,233.494 564.5,234.5 Z"/></g>
<g><path style="opacity:0.989" fill="#d19e8a" d="M 511.5,233.5 C 521.145,238.478 528.478,245.812 533.5,255.5C 532.406,262.305 534.74,267.305 540.5,270.5C 542.841,269.818 545.174,269.151 547.5,268.5C 544.698,272.362 541.031,273.362 536.5,271.5C 532.936,266.767 531.103,261.433 531,255.5C 529.5,253.333 528,251.167 526.5,249C 521.53,248.263 518.363,245.429 517,240.5C 513.805,239.149 511.972,236.815 511.5,233.5 Z"/></g>
<g><path style="opacity:0.047" fill="#741e21" d="M 549.5,244.5 C 552.871,245.716 556.205,246.716 559.5,247.5C 558.167,247.5 556.833,247.5 555.5,247.5C 555.5,248.5 555.5,249.5 555.5,250.5C 556.833,250.5 558.167,250.5 559.5,250.5C 558.626,251.525 557.459,252.192 556,252.5C 554.493,251.445 552.993,250.445 551.5,249.5C 551.804,248.85 552.137,248.183 552.5,247.5C 551.23,246.712 550.23,245.712 549.5,244.5 Z"/></g>
<g><path style="opacity:0.737" fill="#943e39" d="M 564.5,234.5 C 566.56,236.885 568.56,239.218 570.5,241.5C 570.708,243.92 570.374,246.253 569.5,248.5C 569.957,249.298 570.624,249.631 571.5,249.5C 570.614,250.776 569.614,250.776 568.5,249.5C 566.628,247.09 565.295,244.423 564.5,241.5C 566.136,242.749 567.303,244.416 568,246.5C 568.167,245.833 568.333,245.167 568.5,244.5C 566.963,241.216 565.629,237.883 564.5,234.5 Z"/></g>
<g><path style="opacity:0.055" fill="#792324" d="M 576.5,243.5 C 576.735,242.903 577.235,242.57 578,242.5C 579.37,244.203 581.036,245.536 583,246.5C 583.902,246.257 584.735,245.923 585.5,245.5C 585.03,246.693 584.03,247.36 582.5,247.5C 581.5,247.333 580.5,247.167 579.5,247C 579.026,245.271 578.026,244.105 576.5,243.5 Z"/></g>
<g><path style="opacity:0.518" fill="#cd7175" d="M 559.5,238.5 C 559.631,239.239 559.464,239.906 559,240.5C 558.329,239.748 557.496,239.414 556.5,239.5C 553.176,237.788 551.343,238.788 551,242.5C 554.306,244.032 557.806,245.199 561.5,246C 562.38,247.356 562.714,248.856 562.5,250.5C 562.586,251.496 562.252,252.329 561.5,253C 558.463,254.85 555.463,254.85 552.5,253C 551.663,251.989 551.33,250.822 551.5,249.5C 552.993,250.445 554.493,251.445 556,252.5C 557.459,252.192 558.626,251.525 559.5,250.5C 559.5,249.5 559.5,248.5 559.5,247.5C 556.205,246.716 552.871,245.716 549.5,244.5C 548.378,242.712 548.211,240.712 549,238.5C 549.671,237.748 550.504,237.414 551.5,237.5C 554.455,235.91 557.122,236.243 559.5,238.5 Z"/></g>
<g><path style="opacity:0.69" fill="#cd7978" d="M 615.5,242.5 C 620.65,246.575 620.65,250.909 615.5,255.5C 615.44,256.043 615.107,256.376 614.5,256.5C 612.885,255.846 611.218,255.346 609.5,255C 608.748,254.329 608.414,253.496 608.5,252.5C 607.896,247.024 610.229,243.691 615.5,242.5 Z M 615.5,248.5 C 615.506,251.548 614.506,252.048 612.5,250C 613.244,248.961 614.244,248.461 615.5,248.5 Z"/></g>
<g><path style="opacity:0.067" fill="#78201d" d="M 612.5,244.5 C 617.515,245.278 618.682,247.945 616,252.5C 612.889,254.272 611.056,253.439 610.5,250C 610.758,247.991 611.425,246.157 612.5,244.5 Z M 615.5,248.5 C 614.244,248.461 613.244,248.961 612.5,250C 614.506,252.048 615.506,251.548 615.5,248.5 Z"/></g>
<g><path style="opacity:0.047" fill="#731e1c" d="M 624.5,261.5 C 623.698,260.048 623.198,258.382 623,256.5C 621.653,258.466 620.153,258.799 618.5,257.5C 620.951,255.877 622.951,253.711 624.5,251C 628.088,250.389 629.254,251.889 628,255.5C 626.053,257.063 624.886,259.063 624.5,261.5 Z"/></g>
<g><path style="opacity:0.094" fill="#731d1b" d="M 630.5,249.5 C 632.678,250.657 634.678,251.99 636.5,253.5C 634.565,252.85 632.565,252.517 630.5,252.5C 630.5,251.5 630.5,250.5 630.5,249.5 Z"/></g>
<g><path style="opacity:0.059" fill="#70211d" d="M 615.5,242.5 C 619.07,242.901 621.236,244.901 622,248.5C 624.126,246.067 626.292,246.067 628.5,248.5C 627.07,248.579 625.736,248.246 624.5,247.5C 621.974,250.557 619.974,253.891 618.5,257.5C 617.778,256.449 616.778,255.782 615.5,255.5C 620.65,250.909 620.65,246.575 615.5,242.5 Z"/></g>
<g><path style="opacity:0.831" fill="#d07d7b" d="M 628.5,248.5 C 629.167,248.833 629.833,249.167 630.5,249.5C 630.5,250.5 630.5,251.5 630.5,252.5C 632.565,252.517 634.565,252.85 636.5,253.5C 636.579,258.676 634.579,262.676 630.5,265.5C 629.529,264.038 629.862,262.705 631.5,261.5C 633.834,259.824 634.834,257.491 634.5,254.5C 630,254.663 627.334,256.996 626.5,261.5C 625.833,262.833 625.167,262.833 624.5,261.5C 624.886,259.063 626.053,257.063 628,255.5C 629.254,251.889 628.088,250.389 624.5,251C 622.951,253.711 620.951,255.877 618.5,257.5C 619.974,253.891 621.974,250.557 624.5,247.5C 625.736,248.246 627.07,248.579 628.5,248.5 Z"/></g>
<g><path style="opacity:0.071" fill="#741c1a" d="M 631.5,261.5 C 631.815,259.774 631.981,258.107 632,256.5C 630.296,258.373 628.463,260.04 626.5,261.5C 627.334,256.996 630,254.663 634.5,254.5C 634.834,257.491 633.834,259.824 631.5,261.5 Z"/></g>
<g><path style="opacity:0.059" fill="#802f2d" d="M 636.5,253.5 C 638.405,255.049 638.739,256.882 637.5,259C 640.681,257.045 643.348,257.879 645.5,261.5C 643.857,261.52 642.524,260.853 641.5,259.5C 638.047,261.784 635.047,264.618 632.5,268C 634.119,268.236 635.119,269.069 635.5,270.5C 633.856,271.366 632.189,271.866 630.5,272C 630.404,269.763 630.404,267.596 630.5,265.5C 634.579,262.676 636.579,258.676 636.5,253.5 Z"/></g>
<g><path style="opacity:1" fill="#d19f88" d="M 593.5,260.5 C 605.345,262.59 615.678,267.59 624.5,275.5C 624.5,276.167 624.5,276.833 624.5,277.5C 619.523,274.677 614.523,271.843 609.5,269C 605.833,268.667 602.167,268.333 598.5,268C 596.353,263.844 593.186,262.677 589,264.5C 580.102,260.935 571.102,260.602 562,263.5C 560.301,262.594 558.467,262.261 556.5,262.5C 559.023,261.616 561.69,260.782 564.5,260C 574.18,259.421 583.847,259.588 593.5,260.5 Z"/></g>
<g><path style="opacity:0.62" fill="#d98684" d="M 645.5,261.5 C 647.131,266.924 645.131,270.59 639.5,272.5C 638.583,271.873 637.583,271.539 636.5,271.5C 635.833,271.5 635.5,271.167 635.5,270.5C 635.119,269.069 634.119,268.236 632.5,268C 635.047,264.618 638.047,261.784 641.5,259.5C 642.524,260.853 643.857,261.52 645.5,261.5 Z M 639.5,264.5 C 640.978,264.238 642.311,264.571 643.5,265.5C 640.024,270.985 638.691,270.651 639.5,264.5 Z"/></g>
<g><path style="opacity:1" fill="#c48375" d="M 533.5,255.5 C 535.45,260.347 537.784,265.014 540.5,269.5C 550.479,260.772 562.146,256.772 575.5,257.5C 581.719,258.022 587.719,259.022 593.5,260.5C 583.847,259.588 574.18,259.421 564.5,260C 561.69,260.782 559.023,261.616 556.5,262.5C 553.813,264.833 550.813,266.833 547.5,268.5C 545.174,269.151 542.841,269.818 540.5,270.5C 534.74,267.305 532.406,262.305 533.5,255.5 Z"/></g>
<g><path style="opacity:0.031" fill="#7f2c27" d="M 639.5,262.5 C 643.677,261.842 645.177,263.508 644,267.5C 641.153,271.38 638.653,271.38 636.5,267.5C 637.092,265.577 638.092,263.911 639.5,262.5 Z M 639.5,264.5 C 638.691,270.651 640.024,270.985 643.5,265.5C 642.311,264.571 640.978,264.238 639.5,264.5 Z"/></g>
<g><path style="opacity:0.198" fill="#752521" d="M 645.5,261.5 C 647.28,262.99 647.946,264.99 647.5,267.5C 649.698,267.12 651.365,267.787 652.5,269.5C 647.167,270.167 647.167,270.833 652.5,271.5C 652.5,272.833 652.5,274.167 652.5,275.5C 650.567,275.271 648.9,274.438 647.5,273C 643.075,272.044 641.408,273.877 642.5,278.5C 640.787,277.365 640.12,275.698 640.5,273.5C 638.62,273.771 637.287,273.104 636.5,271.5C 637.583,271.539 638.583,271.873 639.5,272.5C 645.131,270.59 647.131,266.924 645.5,261.5 Z"/></g>
<g><path style="opacity:0.576" fill="#c87473" d="M 652.5,269.5 C 652.5,270.167 652.5,270.833 652.5,271.5C 647.167,270.833 647.167,270.167 652.5,269.5 Z"/></g>
<g><path style="opacity:0.749" fill="#cc7c77" d="M 652.5,271.5 C 654.377,272.659 654.877,274.326 654,276.5C 651.269,278.418 648.769,280.418 646.5,282.5C 644.833,281.5 643.5,280.167 642.5,278.5C 641.408,273.877 643.075,272.044 647.5,273C 648.9,274.438 650.567,275.271 652.5,275.5C 652.5,274.167 652.5,272.833 652.5,271.5 Z"/></g>
<g><path style="opacity:0.224" fill="#6a201b" d="M 647.5,275.5 C 649.93,276.653 649.93,277.653 647.5,278.5C 643.606,277.695 642.94,276.028 645.5,273.5C 646.522,273.855 647.189,274.522 647.5,275.5 Z"/></g>
<g><path style="opacity:0.024" fill="#7c2926" d="M 652.5,269.5 C 655.172,271.391 656.172,274.058 655.5,277.5C 656.978,277.238 658.311,277.571 659.5,278.5C 660.083,280.002 660.916,281.335 662,282.5C 662.765,284.066 662.598,285.399 661.5,286.5C 660.516,281.342 659.683,281.342 659,286.5C 658.329,287.252 657.496,287.586 656.5,287.5C 657.11,286.609 657.443,285.609 657.5,284.5C 658.043,284.44 658.376,284.107 658.5,283.5C 657.675,282.614 656.675,282.281 655.5,282.5C 656.398,281.842 657.398,281.176 658.5,280.5C 654.47,280.327 650.803,281.66 647.5,284.5C 647.167,283.833 646.833,283.167 646.5,282.5C 648.769,280.418 651.269,278.418 654,276.5C 654.877,274.326 654.377,272.659 652.5,271.5C 652.5,270.833 652.5,270.167 652.5,269.5 Z"/></g>
<g><path style="opacity:0.775" fill="#c46d6c" d="M 655.5,282.5 C 654.29,282.932 653.29,283.599 652.5,284.5C 650.704,287.048 649.038,287.048 647.5,284.5C 650.803,281.66 654.47,280.327 658.5,280.5C 657.398,281.176 656.398,281.842 655.5,282.5 Z"/></g>
<g><path style="opacity:0.051" fill="#471413" d="M 655.5,282.5 C 656.675,282.281 657.675,282.614 658.5,283.5C 658.376,284.107 658.043,284.44 657.5,284.5C 656.065,283.904 654.398,283.904 652.5,284.5C 653.29,283.599 654.29,282.932 655.5,282.5 Z"/></g>
<g><path style="opacity:0.999" fill="#d19d88" d="M 444.5,231.5 C 443.748,233.1 442.748,234.6 441.5,236C 438.475,236.154 436.809,237.654 436.5,240.5C 434.801,240.34 433.134,240.506 431.5,241C 425.979,246.855 420.146,252.355 414,257.5C 412.11,262.718 409.777,267.718 407,272.5C 406.921,278.96 406.088,285.293 404.5,291.5C 401.189,292.353 397.856,292.186 394.5,291C 393.027,290.29 392.36,289.124 392.5,287.5C 384.167,287.5 375.833,287.5 367.5,287.5C 367.778,289.346 367.111,290.68 365.5,291.5C 362.84,290.297 360.173,290.297 357.5,291.5C 358.961,288.824 361.294,287.324 364.5,287C 371.409,285.419 378.409,284.586 385.5,284.5C 390.36,284.46 394.693,285.793 398.5,288.5C 399.287,290.104 400.62,290.771 402.5,290.5C 402.5,288.5 402.5,286.5 402.5,284.5C 404.073,265.521 412.74,250.687 428.5,240C 433.412,236.377 438.745,233.544 444.5,231.5 Z"/></g>
<g><path style="opacity:0.153" fill="#84412f" d="M 402.5,284.5 C 402.5,286.5 402.5,288.5 402.5,290.5C 400.62,290.771 399.287,290.104 398.5,288.5C 399.5,288.5 400.5,288.5 401.5,288.5C 401.232,286.901 401.566,285.568 402.5,284.5 Z"/></g>
<g><path style="opacity:0.075" fill="#761f1d" d="M 661.5,287.5 C 663.948,287.085 665.281,288.085 665.5,290.5C 664.9,292.468 663.567,293.468 661.5,293.5C 662.23,292.288 663.23,291.288 664.5,290.5C 664,290.167 663.5,289.833 663,289.5C 661.587,291.413 659.754,292.746 657.5,293.5C 657.631,292.624 657.298,291.957 656.5,291.5C 655.583,292.127 654.583,292.461 653.5,292.5C 655.822,290.336 658.489,288.669 661.5,287.5 Z"/></g>
<g><path style="opacity:0.859" fill="#c27e6d" d="M 624.5,275.5 C 633.011,281.007 639.345,288.341 643.5,297.5C 641.938,297.267 640.605,296.6 639.5,295.5C 637.372,292.856 635.872,289.856 635,286.5C 631.005,283.854 627.505,280.854 624.5,277.5C 624.5,276.833 624.5,276.167 624.5,275.5 Z"/></g>
<g><path style="opacity:0.718" fill="#c8706e" d="M 661.5,286.5 C 661.5,286.833 661.5,287.167 661.5,287.5C 658.489,288.669 655.822,290.336 653.5,292.5C 651.775,292.157 651.275,291.157 652,289.5C 653.33,288.418 654.83,287.751 656.5,287.5C 657.496,287.586 658.329,287.252 659,286.5C 659.683,281.342 660.516,281.342 661.5,286.5 Z"/></g>
<g><path style="opacity:0.231" fill="#99514d" d="M 357.5,288.5 C 355.967,290.245 353.967,291.245 351.5,291.5C 353.033,289.755 355.033,288.755 357.5,288.5 Z"/></g>
<g><path style="opacity:1" fill="#c78a7a" d="M 385.5,284.5 C 378.409,284.586 371.409,285.419 364.5,287C 361.294,287.324 358.961,288.824 357.5,291.5C 355.952,291.821 355.285,292.821 355.5,294.5C 352.784,294.678 350.117,295.178 347.5,296C 344.314,299.021 340.98,301.854 337.5,304.5C 334.896,309.104 331.23,312.77 326.5,315.5C 332.221,304.779 340.554,296.779 351.5,291.5C 353.967,291.245 355.967,290.245 357.5,288.5C 366.431,283.928 375.765,282.594 385.5,284.5 Z"/></g>
<g><path style="opacity:0.373" fill="#a74b4d" d="M 657.5,293.5 C 656.06,295.949 654.06,297.615 651.5,298.5C 651.167,298.5 650.833,298.5 650.5,298.5C 648.102,297.118 647.935,295.451 650,293.5C 650.915,294.328 651.581,295.328 652,296.5C 653.741,295.242 655.574,294.242 657.5,293.5 Z"/></g>
<g><path style="opacity:0.729" fill="#d68382" d="M 661.5,293.5 C 660.373,294.122 659.373,294.955 658.5,296C 661.553,296.179 664.553,296.679 667.5,297.5C 662.208,298.495 656.875,298.828 651.5,298.5C 654.06,297.615 656.06,295.949 657.5,293.5C 659.754,292.746 661.587,291.413 663,289.5C 663.5,289.833 664,290.167 664.5,290.5C 663.23,291.288 662.23,292.288 661.5,293.5 Z"/></g>
<g><path style="opacity:0.161" fill="#711a1a" d="M 661.5,293.5 C 665.845,294.174 669.512,296.174 672.5,299.5C 669.579,299.283 666.913,299.949 664.5,301.5C 664.082,300.778 663.416,300.278 662.5,300C 658.312,299.824 654.312,299.324 650.5,298.5C 650.833,298.5 651.167,298.5 651.5,298.5C 656.875,298.828 662.208,298.495 667.5,297.5C 664.553,296.679 661.553,296.179 658.5,296C 659.373,294.955 660.373,294.122 661.5,293.5 Z"/></g>
<g><path style="opacity:0.2" fill="#9b4143" d="M 672.5,299.5 C 676.457,302.537 676.457,305.704 672.5,309C 665.987,310.318 663.321,307.818 664.5,301.5C 666.913,299.949 669.579,299.283 672.5,299.5 Z"/></g>
<g><path style="opacity:0.549" fill="#bc6b69" d="M 668.5,302.5 C 669.5,302.5 670.5,302.5 671.5,302.5C 671.5,303.5 671.5,304.5 671.5,305.5C 668.433,305.879 667.433,304.879 668.5,302.5 Z"/></g>
<g><path style="opacity:0.675" fill="#c0796b" d="M 643.5,297.5 C 647.172,302.524 649.505,308.19 650.5,314.5C 647.375,309.238 645.042,303.572 643.5,297.5 Z"/></g>
<g><path style="opacity:1" fill="#cc9482" d="M 639.5,295.5 C 640.605,296.6 641.938,297.267 643.5,297.5C 645.042,303.572 647.375,309.238 650.5,314.5C 653.704,328.927 652.871,343.261 648,357.5C 647.392,359.066 646.558,360.4 645.5,361.5C 644.167,362.833 642.833,364.167 641.5,365.5C 641.397,362.781 641.731,360.115 642.5,357.5C 644.843,355.005 646.343,352.005 647,348.5C 647.301,341.061 648.135,333.727 649.5,326.5C 649.356,323.146 649.022,319.813 648.5,316.5C 645.481,309.424 642.481,302.424 639.5,295.5 Z"/></g>
<g><path style="opacity:0.573" fill="#ca8a7c" d="M 320.5,329.5 C 320.318,342.505 319.985,355.505 319.5,368.5C 318.037,362.566 317.37,356.399 317.5,350C 317.095,342.823 318.095,335.99 320.5,329.5 Z"/></g>
<g><path style="opacity:0.125" fill="#8f3e39" d="M 645.5,361.5 C 644.617,364.704 642.95,367.371 640.5,369.5C 640.557,368.391 640.89,367.391 641.5,366.5C 641.5,366.167 641.5,365.833 641.5,365.5C 642.833,364.167 644.167,362.833 645.5,361.5 Z"/></g>
<g><path style="opacity:0.067" fill="#823729" d="M 640.5,369.5 C 639.581,372.089 637.914,374.089 635.5,375.5C 636.419,372.911 638.086,370.911 640.5,369.5 Z"/></g>
<g><path style="opacity:0.059" fill="#7c2e24" d="M 631.5,379.5 C 630.415,381.587 628.749,382.92 626.5,383.5C 627.585,381.413 629.251,380.08 631.5,379.5 Z"/></g>
<g><path style="opacity:0.075" fill="#863c38" d="M 626.5,383.5 C 624.704,385.9 622.37,387.567 619.5,388.5C 621.296,386.1 623.63,384.433 626.5,383.5 Z"/></g>
<g><path style="opacity:0.012" fill="#7d2e25" d="M 329.5,387.5 C 331.167,388.5 332.5,389.833 333.5,391.5C 331.167,391.167 329.833,389.833 329.5,387.5 Z"/></g>
<g><path style="opacity:0.851" fill="#a65e53" d="M 617.5,389.5 C 613.419,392.874 608.753,395.207 603.5,396.5C 605.705,394.308 608.371,392.974 611.5,392.5C 611.5,391.5 611.5,390.5 611.5,389.5C 613.5,389.5 615.5,389.5 617.5,389.5 Z"/></g>
<g><path style="opacity:1" fill="#c88c7c" d="M 319.5,368.5 C 321.777,368.863 322.444,369.863 321.5,371.5C 323.186,375.533 324.853,379.533 326.5,383.5C 327.552,383.351 328.552,383.517 329.5,384C 332.886,387.87 336.886,391.036 341.5,393.5C 342.999,397.904 345.999,399.904 350.5,399.5C 350.5,400.5 350.5,401.5 350.5,402.5C 349.833,402.5 349.167,402.5 348.5,402.5C 342.652,399.985 337.652,396.318 333.5,391.5C 332.5,389.833 331.167,388.5 329.5,387.5C 323.911,382.433 320.578,376.1 319.5,368.5 Z"/></g>
<g><path style="opacity:1" fill="#d4a08c" d="M 641.5,366.5 C 640.89,367.391 640.557,368.391 640.5,369.5C 638.086,370.911 636.419,372.911 635.5,375.5C 634.5,377.167 633.167,378.5 631.5,379.5C 629.251,380.08 627.585,381.413 626.5,383.5C 623.63,384.433 621.296,386.1 619.5,388.5C 619.158,389.338 618.492,389.672 617.5,389.5C 615.5,389.5 613.5,389.5 611.5,389.5C 611.5,390.5 611.5,391.5 611.5,392.5C 608.371,392.974 605.705,394.308 603.5,396.5C 599.394,396.74 595.394,397.407 591.5,398.5C 591.937,396.926 592.937,395.759 594.5,395C 601.977,392.672 609.31,389.839 616.5,386.5C 617.246,385.264 617.579,383.93 617.5,382.5C 620.247,382.813 622.914,382.48 625.5,381.5C 627.477,379.156 629.81,377.156 632.5,375.5C 633.987,370.935 636.987,367.935 641.5,366.5 Z"/></g>
<g><path style="opacity:0.608" fill="#b87165" d="M 603.5,396.5 C 598.512,398.822 593.179,400.155 587.5,400.5C 584.833,400.5 582.167,400.5 579.5,400.5C 583.5,399.833 587.5,399.167 591.5,398.5C 595.394,397.407 599.394,396.74 603.5,396.5 Z"/></g>
<g><path style="opacity:0.188" fill="#803c34" d="M 579.5,400.5 C 582.167,400.5 584.833,400.5 587.5,400.5C 585.369,401.314 583.036,401.814 580.5,402C 578.671,404.682 577.337,407.516 576.5,410.5C 576.575,407.794 576.908,405.127 577.5,402.5C 578.167,401.833 578.833,401.167 579.5,400.5 Z"/></g>
<g><path style="opacity:0.161" fill="#82443a" d="M 348.5,402.5 C 349.167,402.5 349.833,402.5 350.5,402.5C 352.076,403.143 353.41,404.143 354.5,405.5C 352.033,405.245 350.033,404.245 348.5,402.5 Z"/></g>
<g><path style="opacity:0.827" fill="#bf7c6f" d="M 354.5,405.5 C 365.449,406.875 376.449,407.875 387.5,408.5C 391.091,412.092 392.758,416.425 392.5,421.5C 391.202,417.408 389.202,413.575 386.5,410C 375.44,410.785 364.773,409.285 354.5,405.5 Z"/></g>
<g><path style="opacity:0.043" fill="#6d221d" d="M 392.5,423.5 C 394.25,427.183 394.917,431.183 394.5,435.5C 394.5,440.5 394.5,445.5 394.5,450.5C 393.72,441.652 393.053,432.652 392.5,423.5 Z"/></g>
<g><path style="opacity:0.407" fill="#b77268" d="M 394.5,435.5 C 395.326,440.316 395.826,445.316 396,450.5C 398.719,451.444 401.552,451.777 404.5,451.5C 404.5,451.833 404.5,452.167 404.5,452.5C 400.556,454.344 397.223,453.677 394.5,450.5C 394.5,445.5 394.5,440.5 394.5,435.5 Z"/></g>
<g><path style="opacity:0.878" fill="#bf7b6e" d="M 575.5,415.5 C 574.788,428.483 574.288,441.483 574,454.5C 573.626,455.416 573.126,456.25 572.5,457C 568.973,457.808 565.64,457.641 562.5,456.5C 565.5,456.5 568.5,456.5 571.5,456.5C 571.334,446.161 571.5,435.828 572,425.5C 572.539,422.471 573.206,419.471 574,416.5C 574.383,415.944 574.883,415.611 575.5,415.5 Z"/></g>
<g><path style="opacity:0.129" fill="#7c2d26" d="M 482.5,449.5 C 456.434,449.017 430.434,450.017 404.5,452.5C 404.5,452.167 404.5,451.833 404.5,451.5C 430.597,448.582 456.597,447.915 482.5,449.5 Z"/></g>
<g><path style="opacity:0.714" fill="#cf9583" d="M 577.5,402.5 C 576.908,405.127 576.575,407.794 576.5,410.5C 576.634,412.292 576.301,413.958 575.5,415.5C 574.883,415.611 574.383,415.944 574,416.5C 573.206,419.471 572.539,422.471 572,425.5C 571.5,435.828 571.334,446.161 571.5,456.5C 568.5,456.5 565.5,456.5 562.5,456.5C 556.151,454.236 549.484,453.236 542.5,453.5C 522.528,451.769 502.528,450.436 482.5,449.5C 456.597,447.915 430.597,448.582 404.5,451.5C 401.552,451.777 398.719,451.444 396,450.5C 395.826,445.316 395.326,440.316 394.5,435.5C 394.917,431.183 394.25,427.183 392.5,423.5C 392.5,422.833 392.5,422.167 392.5,421.5C 394.772,422.723 395.939,424.723 396,427.5C 396.184,435.079 396.684,442.579 397.5,450C 405.274,450.713 412.941,450.047 420.5,448C 453.5,447.333 486.5,447.333 519.5,448C 530.296,449.595 541.13,450.762 552,451.5C 553.231,450.892 554.564,450.559 556,450.5C 560.639,452.461 565.472,453.461 570.5,453.5C 570.736,439.954 570.736,426.454 570.5,413C 572.876,410.278 574.376,407.111 575,403.5C 575.671,402.748 576.504,402.414 577.5,402.5 Z"/></g>
<g><path style="opacity:0.094" fill="#7b342c" d="M 542.5,453.5 C 549.484,453.236 556.151,454.236 562.5,456.5C 555.666,455.727 549,454.727 542.5,453.5 Z"/></g>
<g><path style="opacity:0.787" fill="#b77368" d="M 535.5,485.5 C 533.5,485.167 531.5,484.833 529.5,484.5C 528.833,484.5 528.167,484.5 527.5,484.5C 523.326,483.718 518.992,483.051 514.5,482.5C 510.87,483.426 507.203,484.093 503.5,484.5C 514.332,479.081 524.998,479.415 535.5,485.5 Z"/></g>
<g><path style="opacity:0.102" fill="#8f473c" d="M 464.5,483.5 C 467.754,483.794 470.421,485.127 472.5,487.5C 469.515,486.674 466.849,485.341 464.5,483.5 Z"/></g>
<g><path style="opacity:1" fill="#cea98a" d="M 478.5,492.5 C 479.577,495.307 480.577,498.14 481.5,501C 482.729,501.781 484.062,502.281 485.5,502.5C 488.022,501.238 490.689,500.571 493.5,500.5C 493.343,499.127 493.51,497.793 494,496.5C 498.172,494.212 502.006,492.045 505.5,490C 506.184,488.307 507.184,486.807 508.5,485.5C 514.798,484.504 521.132,484.17 527.5,484.5C 528.167,484.5 528.833,484.5 529.5,484.5C 532.118,485.949 534.284,487.949 536,490.5C 541.712,492.093 546.212,495.259 549.5,500C 552.22,500.723 554.387,502.223 556,504.5C 556.333,504.167 556.667,503.833 557,503.5C 558.741,504.758 560.574,505.758 562.5,506.5C 561.551,510.226 563.218,511.893 567.5,511.5C 566.974,514.808 568.307,516.974 571.5,518C 577.016,518.817 582.35,518.651 587.5,517.5C 591.962,518.097 595.295,516.264 597.5,512C 598.448,511.517 599.448,511.351 600.5,511.5C 600.664,514.187 600.497,516.854 600,519.5C 598.975,524.078 597.475,528.412 595.5,532.5C 588.276,534.632 582.609,538.965 578.5,545.5C 575.223,546.254 571.89,546.754 568.5,547C 566.884,547.615 565.551,548.615 564.5,550C 558.455,550.508 552.455,551.341 546.5,552.5C 535.184,551.235 523.851,550.235 512.5,549.5C 509.621,547.032 506.288,545.365 502.5,544.5C 500.596,544.262 499.262,543.262 498.5,541.5C 498.804,540.85 499.137,540.183 499.5,539.5C 496.577,538.552 493.911,537.219 491.5,535.5C 490.483,533.089 488.816,531.422 486.5,530.5C 485.833,530.5 485.167,530.5 484.5,530.5C 482.712,530.215 481.045,530.548 479.5,531.5C 475.664,535.001 471.331,537.834 466.5,540C 464.393,541.264 463.393,543.097 463.5,545.5C 460.813,545.336 458.146,545.503 455.5,546C 453.606,547.404 451.606,548.57 449.5,549.5C 443.668,548.369 438.001,549.036 432.5,551.5C 427.966,551.443 423.466,551.443 419,551.5C 410.875,549.88 402.708,548.547 394.5,547.5C 394.5,546.167 394.5,544.833 394.5,543.5C 391.098,543.658 387.764,543.324 384.5,542.5C 383.415,540.413 381.749,539.08 379.5,538.5C 378.753,535.638 377.086,533.638 374.5,532.5C 374.785,530.712 374.452,529.045 373.5,527.5C 371.155,523.795 369.155,520.129 367.5,516.5C 367.5,516.167 367.5,515.833 367.5,515.5C 367.5,513.167 367.5,510.833 367.5,508.5C 368.833,508.5 370.167,508.5 371.5,508.5C 375.513,519.13 383.18,522.797 394.5,519.5C 396.691,518.257 399.024,517.424 401.5,517C 406.932,510.246 413.599,504.913 421.5,501C 422.476,498.21 423.809,495.71 425.5,493.5C 427.473,492.194 429.139,490.527 430.5,488.5C 432.848,488.408 434.514,487.408 435.5,485.5C 442.69,483.592 450.023,483.092 457.5,484C 465.001,486.527 472.001,489.36 478.5,492.5 Z"/></g>
<g><path style="opacity:0.216" fill="#954e48" d="M 503.5,484.5 C 502.514,486.408 500.848,487.408 498.5,487.5C 499.659,485.75 501.326,484.75 503.5,484.5 Z"/></g>
<g><path style="opacity:0.153" fill="#722928" d="M 535.5,485.5 C 537.933,485.273 539.599,486.273 540.5,488.5C 538.566,487.89 536.899,486.89 535.5,485.5 Z"/></g>
<g><path style="opacity:0.239" fill="#9d5347" d="M 435.5,485.5 C 434.514,487.408 432.848,488.408 430.5,488.5C 431.659,486.75 433.326,485.75 435.5,485.5 Z"/></g>
<g><path style="opacity:0.937" fill="#c58375" d="M 464.5,483.5 C 466.849,485.341 469.515,486.674 472.5,487.5C 475.109,488.443 477.109,490.11 478.5,492.5C 472.001,489.36 465.001,486.527 457.5,484C 450.023,483.092 442.69,483.592 435.5,485.5C 444.882,479.95 454.549,479.283 464.5,483.5 Z"/></g>
<g><path style="opacity:0.282" fill="#995751" d="M 498.5,487.5 C 497.089,489.914 495.089,491.581 492.5,492.5C 493.911,490.086 495.911,488.419 498.5,487.5 Z"/></g>
<g><path style="opacity:0.2" fill="#995445" d="M 430.5,488.5 C 429.139,490.527 427.473,492.194 425.5,493.5C 424.395,494.6 423.062,495.267 421.5,495.5C 423.949,492.444 426.949,490.111 430.5,488.5 Z"/></g>
<g><path style="opacity:0.2" fill="#914941" d="M 540.5,488.5 C 543.891,489.529 546.557,491.529 548.5,494.5C 545.384,493.03 542.717,491.03 540.5,488.5 Z"/></g>
<g><path style="opacity:0.945" fill="#cf9383" d="M 529.5,484.5 C 531.5,484.833 533.5,485.167 535.5,485.5C 536.899,486.89 538.566,487.89 540.5,488.5C 542.717,491.03 545.384,493.03 548.5,494.5C 553.486,498.155 558.153,502.155 562.5,506.5C 560.574,505.758 558.741,504.758 557,503.5C 556.667,503.833 556.333,504.167 556,504.5C 554.387,502.223 552.22,500.723 549.5,500C 546.212,495.259 541.712,492.093 536,490.5C 534.284,487.949 532.118,485.949 529.5,484.5 Z"/></g>
<g><path style="opacity:1" fill="#d09d89" d="M 527.5,484.5 C 521.132,484.17 514.798,484.504 508.5,485.5C 507.184,486.807 506.184,488.307 505.5,490C 502.006,492.045 498.172,494.212 494,496.5C 493.51,497.793 493.343,499.127 493.5,500.5C 490.689,500.571 488.022,501.238 485.5,502.5C 484.062,502.281 482.729,501.781 481.5,501C 480.577,498.14 479.577,495.307 478.5,492.5C 481.173,494.506 483.506,496.839 485.5,499.5C 487.612,496.94 489.945,494.606 492.5,492.5C 495.089,491.581 497.089,489.914 498.5,487.5C 500.848,487.408 502.514,486.408 503.5,484.5C 507.203,484.093 510.87,483.426 514.5,482.5C 518.992,483.051 523.326,483.718 527.5,484.5 Z"/></g>
<g><path style="opacity:0.173" fill="#71271e" d="M 600.5,503.5 C 598.233,510.1 593.899,514.767 587.5,517.5C 584.287,517.81 581.287,517.477 578.5,516.5C 583.08,516.887 587.414,516.053 591.5,514C 595.114,510.897 598.114,507.397 600.5,503.5 Z"/></g>
<g><path style="opacity:1" fill="#cd8e7f" d="M 603.5,516.5 C 601.928,519.215 600.928,522.215 600.5,525.5C 599.326,526.514 598.66,527.847 598.5,529.5C 597.272,530.306 596.272,531.306 595.5,532.5C 597.475,528.412 598.975,524.078 600,519.5C 600.497,516.854 600.664,514.187 600.5,511.5C 599.448,511.351 598.448,511.517 597.5,512C 595.295,516.264 591.962,518.097 587.5,517.5C 593.899,514.767 598.233,510.1 600.5,503.5C 601.32,501.86 602.153,500.193 603,498.5C 603.893,497.289 604.726,497.289 605.5,498.5C 605.977,504.581 605.31,510.581 603.5,516.5 Z"/></g>
<g><path style="opacity:0.773" fill="#cc9181" d="M 562.5,506.5 C 567.497,510.334 572.83,513.667 578.5,516.5C 581.287,517.477 584.287,517.81 587.5,517.5C 582.35,518.651 577.016,518.817 571.5,518C 568.307,516.974 566.974,514.808 567.5,511.5C 563.218,511.893 561.551,510.226 562.5,506.5 Z"/></g>
<g><path style="opacity:0.959" fill="#ca8f7e" d="M 425.5,493.5 C 423.809,495.71 422.476,498.21 421.5,501C 413.599,504.913 406.932,510.246 401.5,517C 399.024,517.424 396.691,518.257 394.5,519.5C 383.18,522.797 375.513,519.13 371.5,508.5C 370.167,508.5 368.833,508.5 367.5,508.5C 367.5,510.833 367.5,513.167 367.5,515.5C 366.71,514.391 366.21,513.058 366,511.5C 365.66,506.996 365.493,502.663 365.5,498.5C 366.86,497.335 367.86,497.668 368.5,499.5C 369.774,503.381 371.607,507.048 374,510.5C 374.816,511.823 375.983,512.489 377.5,512.5C 378.122,515.776 380.122,517.109 383.5,516.5C 390.473,517.061 396.806,515.395 402.5,511.5C 404.795,510.864 406.461,509.531 407.5,507.5C 409.932,506.25 412.266,504.75 414.5,503C 415.252,502.329 415.586,501.496 415.5,500.5C 416.891,498.11 418.891,496.443 421.5,495.5C 423.062,495.267 424.395,494.6 425.5,493.5 Z"/></g>
<g><path style="opacity:0.122" fill="#893730" d="M 377.5,512.5 C 379.537,513.846 381.537,515.18 383.5,516.5C 380.122,517.109 378.122,515.776 377.5,512.5 Z"/></g>
<g><path style="opacity:0.047" fill="#6f1d19" d="M 368.5,499.5 C 371.241,503.97 374.241,508.304 377.5,512.5C 375.983,512.489 374.816,511.823 374,510.5C 371.607,507.048 369.774,503.381 368.5,499.5 Z"/></g>
<g><path style="opacity:0.157" fill="#934d49" d="M 407.5,507.5 C 406.461,509.531 404.795,510.864 402.5,511.5C 403.579,509.457 405.246,508.124 407.5,507.5 Z"/></g>
<g><path style="opacity:0.169" fill="#854036" d="M 415.5,500.5 C 415.586,501.496 415.252,502.329 414.5,503C 412.266,504.75 409.932,506.25 407.5,507.5C 409.549,504.45 412.216,502.117 415.5,500.5 Z"/></g>
<g><path style="opacity:0.129" fill="#a55c50" d="M 367.5,516.5 C 369.155,520.129 371.155,523.795 373.5,527.5C 374.452,529.045 374.785,530.712 374.5,532.5C 371.1,527.693 368.766,522.36 367.5,516.5 Z"/></g>
<g><path style="opacity:0.027" fill="#752722" d="M 603.5,516.5 C 603.472,519.916 602.472,522.916 600.5,525.5C 600.928,522.215 601.928,519.215 603.5,516.5 Z"/></g>
<g><path style="opacity:0.043" fill="#661918" d="M 600.5,525.5 C 600.771,527.38 600.104,528.713 598.5,529.5C 598.66,527.847 599.326,526.514 600.5,525.5 Z"/></g>
<g><path style="opacity:0.373" fill="#a5544d" d="M 374.5,532.5 C 377.086,533.638 378.753,535.638 379.5,538.5C 377.367,536.909 375.701,534.909 374.5,532.5 Z"/></g>
<g><path style="opacity:0.157" fill="#9a5049" d="M 486.5,530.5 C 488.816,531.422 490.483,533.089 491.5,535.5C 489.184,534.578 487.517,532.911 486.5,530.5 Z"/></g>
<g><path style="opacity:0.02" fill="#6e2419" d="M 598.5,529.5 C 598.155,532.198 596.822,534.198 594.5,535.5C 594.557,534.391 594.89,533.391 595.5,532.5C 596.272,531.306 597.272,530.306 598.5,529.5 Z"/></g>
<g><path style="opacity:0.361" fill="#9d5348" d="M 379.5,538.5 C 381.749,539.08 383.415,540.413 384.5,542.5C 382.251,541.92 380.585,540.587 379.5,538.5 Z"/></g>
<g><path style="opacity:0.984" fill="#c07d74" d="M 491.5,535.5 C 493.911,537.219 496.577,538.552 499.5,539.5C 499.137,540.183 498.804,540.85 498.5,541.5C 495.573,540.243 493.239,538.243 491.5,535.5 Z"/></g>
<g><path style="opacity:0.651" fill="#964b41" d="M 588.5,541.5 C 586.025,544.241 583.025,546.241 579.5,547.5C 581.633,544.262 584.633,542.262 588.5,541.5 Z"/></g>
<g><path style="opacity:0.706" fill="#8e493e" d="M 502.5,544.5 C 506.288,545.365 509.621,547.032 512.5,549.5C 508.569,548.868 505.235,547.201 502.5,544.5 Z"/></g>
<g><path style="opacity:0.063" fill="#6d2d29" d="M 579.5,547.5 C 578.22,548.931 576.553,549.598 574.5,549.5C 575.78,548.069 577.447,547.402 579.5,547.5 Z"/></g>
<g><path style="opacity:0.11" fill="#7c2722" d="M 466.5,545.5 C 460.059,550.317 452.725,552.983 444.5,553.5C 451.963,551.446 459.296,548.78 466.5,545.5 Z"/></g>
<g><path style="opacity:0.035" fill="#853833" d="M 402.5,551.5 C 405.495,551.294 408.162,551.96 410.5,553.5C 407.572,553.435 404.905,552.768 402.5,551.5 Z"/></g>
<g><path style="opacity:0.853" fill="#d49c8a" d="M 484.5,530.5 C 479.699,536.971 473.699,541.971 466.5,545.5C 459.296,548.78 451.963,551.446 444.5,553.5C 433.504,554.745 422.504,554.745 411.5,553.5C 411.167,553.5 410.833,553.5 410.5,553.5C 408.162,551.96 405.495,551.294 402.5,551.5C 395.623,550.062 389.623,547.062 384.5,542.5C 387.764,543.324 391.098,543.658 394.5,543.5C 394.5,544.833 394.5,546.167 394.5,547.5C 402.708,548.547 410.875,549.88 419,551.5C 423.466,551.443 427.966,551.443 432.5,551.5C 438.001,549.036 443.668,548.369 449.5,549.5C 451.606,548.57 453.606,547.404 455.5,546C 458.146,545.503 460.813,545.336 463.5,545.5C 463.393,543.097 464.393,541.264 466.5,540C 471.331,537.834 475.664,535.001 479.5,531.5C 481.045,530.548 482.712,530.215 484.5,530.5 Z"/></g>
<g><path style="opacity:0.849" fill="#d29a86" d="M 595.5,532.5 C 594.89,533.391 594.557,534.391 594.5,535.5C 592.833,537.833 590.833,539.833 588.5,541.5C 584.633,542.262 581.633,544.262 579.5,547.5C 577.447,547.402 575.78,548.069 574.5,549.5C 559.132,554.191 543.466,555.525 527.5,553.5C 522.112,553.238 517.112,551.905 512.5,549.5C 523.851,550.235 535.184,551.235 546.5,552.5C 552.455,551.341 558.455,550.508 564.5,550C 565.551,548.615 566.884,547.615 568.5,547C 571.89,546.754 575.223,546.254 578.5,545.5C 582.609,538.965 588.276,534.632 595.5,532.5 Z"/></g>
<g><path style="opacity:0.059" fill="#782e22" d="M 411.5,553.5 C 422.504,554.745 433.504,554.745 444.5,553.5C 433.503,556.13 422.503,556.13 411.5,553.5 Z"/></g>
<g><path style="opacity:0.055" fill="#712a1d" d="M 574.5,549.5 C 567.659,552.774 560.326,554.608 552.5,555C 543.937,555.895 535.604,555.395 527.5,553.5C 543.466,555.525 559.132,554.191 574.5,549.5 Z"/></g>
<g><path style="opacity:0.106" fill="#5c1911" d="M 353.5,592.5 C 349.167,592.5 344.833,592.5 340.5,592.5C 344.677,590.552 349.01,590.552 353.5,592.5 Z"/></g>
<g><path style="opacity:0.365" fill="#a25c4f" d="M 519.5,593.5 C 507.833,593.5 496.167,593.5 484.5,593.5C 485.263,592.732 486.263,592.232 487.5,592C 498.379,591.146 509.046,591.646 519.5,593.5 Z"/></g>
<g><path style="opacity:0.149" fill="#93423c" d="M 354.5,593.5 C 358.784,598.398 361.784,604.065 363.5,610.5C 362.833,610.167 362.167,609.833 361.5,609.5C 361.5,609.167 361.5,608.833 361.5,608.5C 358.896,603.625 356.562,598.625 354.5,593.5 Z"/></g>
<g><path style="opacity:0.086" fill="#59221b" d="M 529.5,597.5 C 530.906,597.973 531.573,598.973 531.5,600.5C 530.094,600.027 529.427,599.027 529.5,597.5 Z"/></g>
<g><path style="opacity:0.086" fill="#661711" d="M 455.5,605.5 C 454.833,605.5 454.167,605.5 453.5,605.5C 450.5,605.5 447.5,605.5 444.5,605.5C 448.12,603.124 451.787,603.124 455.5,605.5 Z"/></g>
<g><path style="opacity:0.277" fill="#89413b" d="M 573.5,606.5 C 566.5,605.167 559.5,605.167 552.5,606.5C 559.5,602.5 566.5,602.5 573.5,606.5 Z"/></g>
<g><path style="opacity:0.102" fill="#73241d" d="M 636.5,605.5 C 631.456,605.173 626.456,605.506 621.5,606.5C 620.812,607.855 619.812,608.855 618.5,609.5C 619.812,608.855 620.812,607.855 621.5,606.5C 626.456,605.506 631.456,605.173 636.5,605.5 Z"/></g>
<g><path style="opacity:0.314" fill="#b5615a" d="M 453.5,605.5 C 454.167,605.5 454.833,605.5 455.5,605.5C 456.497,605.47 457.164,605.97 457.5,607C 457.018,609.819 456.018,612.319 454.5,614.5C 456.1,611.2 455.767,608.2 453.5,605.5 Z"/></g>
<g><path style="opacity:1" fill="#cda98a" d="M 495.5,595.5 C 503.561,595.179 511.561,595.679 519.5,597C 523.578,598.332 527.078,600.498 530,603.5C 530.667,606.167 530.667,608.833 530,611.5C 527.908,613.755 525.408,615.422 522.5,616.5C 520.514,619.59 520.181,622.923 521.5,626.5C 519.167,626.5 516.833,626.5 514.5,626.5C 514.167,626.5 513.833,626.5 513.5,626.5C 510.454,625.013 507.121,624.013 503.5,623.5C 502.572,622.232 502.405,620.899 503,619.5C 506.076,618.712 509.242,618.212 512.5,618C 514.491,617.626 516.158,616.793 517.5,615.5C 520.884,609.657 519.884,604.824 514.5,601C 508.977,600.335 503.977,601.502 499.5,604.5C 499.167,604.5 498.833,604.5 498.5,604.5C 497.167,604.5 495.833,604.5 494.5,604.5C 493.756,614.507 493.09,626.507 492.5,640.5C 492.833,641.167 493.167,641.833 493.5,642.5C 499.137,643.663 504.804,643.83 510.5,643C 512.7,640.954 515.367,639.954 518.5,640C 521.37,637.143 523.37,633.81 524.5,630C 526.436,629.187 528.436,628.687 530.5,628.5C 530.942,632.154 531.276,635.821 531.5,639.5C 529.615,641.053 528.615,643.053 528.5,645.5C 526.801,645.34 525.134,645.506 523.5,646C 524.756,646.417 525.423,647.25 525.5,648.5C 525.167,648.5 524.833,648.5 524.5,648.5C 511.833,648.5 499.167,648.5 486.5,648.5C 486.5,630.5 486.5,612.5 486.5,594.5C 489.518,594.704 492.518,595.037 495.5,595.5 Z M 512.5,605.5 C 513.391,606.11 514.391,606.443 515.5,606.5C 516.833,608.833 516.833,611.167 515.5,613.5C 514.508,613.328 513.842,613.662 513.5,614.5C 509.167,614.5 504.833,614.5 500.5,614.5C 500.5,611.5 500.5,608.5 500.5,605.5C 504.5,605.5 508.5,605.5 512.5,605.5 Z"/></g>
<g><path style="opacity:1" fill="#d29d8a" d="M 517.5,615.5 C 511.629,617.323 505.629,617.823 499.5,617C 498.536,612.934 498.203,608.767 498.5,604.5C 498.833,604.5 499.167,604.5 499.5,604.5C 503.977,601.502 508.977,600.335 514.5,601C 519.884,604.824 520.884,609.657 517.5,615.5 Z M 512.5,605.5 C 513.391,606.11 514.391,606.443 515.5,606.5C 516.833,608.833 516.833,611.167 515.5,613.5C 514.508,613.328 513.842,613.662 513.5,614.5C 509.167,614.5 504.833,614.5 500.5,614.5C 500.5,611.5 500.5,608.5 500.5,605.5C 504.5,605.5 508.5,605.5 512.5,605.5 Z"/></g>
<g><path style="opacity:0.784" fill="#cd8d7d" d="M 484.5,593.5 C 496.167,593.5 507.833,593.5 519.5,593.5C 523.259,593.862 526.593,595.195 529.5,597.5C 529.427,599.027 530.094,600.027 531.5,600.5C 532.997,602.29 533.664,604.456 533.5,607C 533.664,609.544 532.997,611.71 531.5,613.5C 531.665,609.818 531.499,606.152 531,602.5C 528.833,601.667 527.333,600.167 526.5,598C 516.266,594.448 505.933,593.615 495.5,595.5C 492.518,595.037 489.518,594.704 486.5,594.5C 486.5,612.5 486.5,630.5 486.5,648.5C 499.167,648.5 511.833,648.5 524.5,648.5C 521.797,649.963 518.797,650.796 515.5,651C 505.09,651.808 494.757,651.641 484.5,650.5C 484.5,631.833 484.5,613.167 484.5,594.5C 484.5,594.167 484.5,593.833 484.5,593.5 Z"/></g>
<g><path style="opacity:0.998" fill="#d39f8b" d="M 573.5,606.5 C 575.153,606.66 576.486,607.326 577.5,608.5C 579.5,611.167 581.833,613.5 584.5,615.5C 586.006,621.726 586.672,628.059 586.5,634.5C 585.015,637.645 583.348,640.645 581.5,643.5C 579.5,644.167 577.5,644.833 575.5,645.5C 577.513,643.227 579.68,640.894 582,638.5C 585.423,628.453 583.59,619.62 576.5,612C 574.866,611.506 573.199,611.34 571.5,611.5C 571.5,610.5 571.5,609.5 571.5,608.5C 561.966,607.92 552.966,609.587 544.5,613.5C 545.833,611.833 547.167,610.167 548.5,608.5C 549.514,607.326 550.847,606.66 552.5,606.5C 559.5,605.167 566.5,605.167 573.5,606.5 Z"/></g>
<g><path style="opacity:1" fill="#c58b77" d="M 611.5,613.5 C 610.5,613.5 609.5,613.5 608.5,613.5C 608.56,608.349 606.56,607.349 602.5,610.5C 600.167,607.5 598.5,607.833 597.5,611.5C 599.839,615.184 601.172,619.184 601.5,623.5C 597.231,618.479 593.564,612.979 590.5,607C 590.833,606.5 591.167,606 591.5,605.5C 596.446,604.386 601.446,604.219 606.5,605C 609.057,607.276 610.724,610.11 611.5,613.5 Z"/></g>
<g><path style="opacity:1" fill="#d3a28c" d="M 444.5,605.5 C 447.5,605.5 450.5,605.5 453.5,605.5C 455.767,608.2 456.1,611.2 454.5,614.5C 452.649,617.372 450.983,620.372 449.5,623.5C 449.073,619.135 448.406,615.135 447.5,611.5C 442.333,615.167 439.833,620.167 440,626.5C 438.667,629.167 437.333,631.833 436,634.5C 434.644,635.38 433.144,635.714 431.5,635.5C 431.808,637.924 431.474,640.257 430.5,642.5C 429.354,641.855 428.354,641.022 427.5,640C 429.152,638.53 430.152,636.697 430.5,634.5C 428.379,626.456 426.046,618.456 423.5,610.5C 424.833,612.5 426.167,614.5 427.5,616.5C 427.345,619.716 428.345,622.383 430.5,624.5C 430.016,627.798 431.016,630.464 433.5,632.5C 435.494,629.85 436.494,626.85 436.5,623.5C 439.274,618.182 441.274,612.515 442.5,606.5C 442.842,605.662 443.508,605.328 444.5,605.5 Z"/></g>
<g><path style="opacity:0.027" fill="#873832" d="M 577.5,608.5 C 580.833,609.833 583.167,612.167 584.5,615.5C 581.833,613.5 579.5,611.167 577.5,608.5 Z"/></g>
<g><path style="opacity:1" fill="#cea88a" d="M 629.5,618.5 C 628.167,618.5 626.833,618.5 625.5,618.5C 624.096,623.069 623.596,627.735 624,632.5C 626.394,635.989 629.227,638.989 632.5,641.5C 632.318,643.591 632.652,645.591 633.5,647.5C 626.593,649.713 621.593,647.546 618.5,641C 617.552,640.517 616.552,640.351 615.5,640.5C 614.86,637.318 613.86,636.985 612.5,639.5C 611.123,644.638 608.123,648.305 603.5,650.5C 599.116,650.826 594.783,650.492 590.5,649.5C 591.456,647.925 592.123,646.258 592.5,644.5C 596.233,642.713 598.233,639.713 598.5,635.5C 600.148,634.223 601.982,633.223 604,632.5C 604.818,629.773 604.652,627.106 603.5,624.5C 602.817,624.137 602.15,623.804 601.5,623.5C 601.172,619.184 599.839,615.184 597.5,611.5C 598.5,607.833 600.167,607.5 602.5,610.5C 606.56,607.349 608.56,608.349 608.5,613.5C 609.5,613.5 610.5,613.5 611.5,613.5C 611.557,614.609 611.89,615.609 612.5,616.5C 612.709,617.922 613.209,619.255 614,620.5C 619.262,618.324 621.762,614.324 621.5,608.5C 622.822,608.33 623.989,608.663 625,609.5C 627.135,607.722 629.635,607.055 632.5,607.5C 631.128,611.003 630.128,614.67 629.5,618.5 Z"/></g>
<g><path style="opacity:0.194" fill="#9c5750" d="M 338.5,593.5 C 338.5,612.167 338.5,630.833 338.5,649.5C 337.813,633.14 337.146,616.64 336.5,600C 336.99,597.654 337.657,595.487 338.5,593.5 Z"/></g>
<g><path style="opacity:1" fill="#cda98a" d="M 361.5,608.5 C 361.5,608.833 361.5,609.167 361.5,609.5C 361.631,614.449 363.964,618.115 368.5,620.5C 368.5,620.833 368.5,621.167 368.5,621.5C 369.868,627.607 372.034,627.941 375,622.5C 375.483,621.552 375.649,620.552 375.5,619.5C 378.581,616.244 381.581,612.744 384.5,609C 383.591,607.211 383.424,605.377 384,603.5C 386.833,602 389,599.833 390.5,597C 393.975,595.882 397.641,595.715 401.5,596.5C 401.833,613.513 401.499,630.513 400.5,647.5C 398.298,648.78 396.132,648.78 394,647.5C 393.256,640.307 393.423,633.141 394.5,626C 394.1,623.1 393.434,620.267 392.5,617.5C 391.817,617.137 391.15,616.804 390.5,616.5C 389.833,615.167 389.167,615.167 388.5,616.5C 387.883,616.389 387.383,616.056 387,615.5C 385.553,617.403 383.886,619.07 382,620.5C 380.496,627.866 377.496,634.532 373,640.5C 370.408,641.982 368.075,641.648 366,639.5C 363.006,632.177 360.006,624.843 357,617.5C 354.815,615.46 352.315,614.126 349.5,613.5C 349.287,624.592 348.287,635.592 346.5,646.5C 344.5,646.167 342.5,645.833 340.5,645.5C 339.789,629.181 339.956,612.848 341,596.5C 344.997,596.068 348.83,595.068 352.5,593.5C 353.586,598.211 355.419,602.544 358,606.5C 358.816,607.823 359.983,608.489 361.5,608.5 Z"/></g>
<g><path style="opacity:0.102" fill="#7b2c22" d="M 385.5,595.5 C 385.008,597.819 384.008,599.819 382.5,601.5C 382.461,598.911 383.461,596.911 385.5,595.5 Z"/></g>
<g><path style="opacity:0.529" fill="#a6564d" d="M 423.5,606.5 C 425.794,609.37 427.128,612.703 427.5,616.5C 426.167,614.5 424.833,612.5 423.5,610.5C 423.5,609.5 423.5,608.5 423.5,607.5C 423.5,607.167 423.5,606.833 423.5,606.5 Z"/></g>
<g><path style="opacity:0.329" fill="#9b4e45" d="M 442.5,606.5 C 441.274,612.515 439.274,618.182 436.5,623.5C 437.691,617.472 439.691,611.805 442.5,606.5 Z"/></g>
<g><path style="opacity:0.224" fill="#944340" d="M 548.5,608.5 C 547.167,610.167 545.833,611.833 544.5,613.5C 543.5,614.167 542.5,614.833 541.5,615.5C 542.833,612.167 545.167,609.833 548.5,608.5 Z"/></g>
<g><path style="opacity:0.114" fill="#7e372f" d="M 636.5,605.5 C 637.535,608.457 636.535,610.791 633.5,612.5C 634.758,610.313 635.758,607.98 636.5,605.5 Z"/></g>
<g><path style="opacity:0.475" fill="#a9635a" d="M 381.5,603.5 C 381.044,608.413 379.044,612.413 375.5,615.5C 376.992,611.182 378.992,607.182 381.5,603.5 Z"/></g>
<g><path style="opacity:0.867" fill="#c0766a" d="M 361.5,609.5 C 362.167,609.833 362.833,610.167 363.5,610.5C 365.674,613.515 367.341,616.849 368.5,620.5C 363.964,618.115 361.631,614.449 361.5,609.5 Z"/></g>
<g><path style="opacity:0.808" fill="#a15c50" d="M 407.5,607.5 C 409.915,610.1 412.249,612.934 414.5,616C 413.663,617.011 413.33,618.178 413.5,619.5C 410.99,615.813 408.99,611.813 407.5,607.5 Z"/></g>
<g><path style="opacity:0.161" fill="#7e332d" d="M 484.5,594.5 C 484.5,613.167 484.5,631.833 484.5,650.5C 483.397,646.206 482.731,641.706 482.5,637C 483.833,626.667 483.833,616.333 482.5,606C 482.594,601.932 483.26,598.099 484.5,594.5 Z"/></g>
<g><path style="opacity:1" fill="#cda98a" d="M 575.5,645.5 C 571.781,645.002 568.447,645.836 565.5,648C 562.5,648.667 559.5,648.667 556.5,648C 553.64,645.64 550.64,643.473 547.5,641.5C 547.622,637.428 545.789,634.095 542,631.5C 541.333,628.833 541.333,626.167 542,623.5C 542.75,622.874 543.584,622.374 544.5,622C 543.321,619.204 543.321,616.371 544.5,613.5C 552.966,609.587 561.966,607.92 571.5,608.5C 571.5,609.5 571.5,610.5 571.5,611.5C 573.199,611.34 574.866,611.506 576.5,612C 583.59,619.62 585.423,628.453 582,638.5C 579.68,640.894 577.513,643.227 575.5,645.5 Z M 567.5,618.5 C 570.828,622.172 572.162,626.505 571.5,631.5C 571.5,631.833 571.5,632.167 571.5,632.5C 566.962,639.541 561.629,640.208 555.5,634.5C 555.443,633.391 555.11,632.391 554.5,631.5C 554.342,628.098 554.676,624.764 555.5,621.5C 556.167,621.5 556.5,621.167 556.5,620.5C 559.788,617.737 563.455,617.07 567.5,618.5 Z"/></g>
<g><path style="opacity:0.208" fill="#823f32" d="M 611.5,613.5 C 612.705,615.138 614.038,615.471 615.5,614.5C 615.368,617.007 614.368,617.674 612.5,616.5C 611.89,615.609 611.557,614.609 611.5,613.5 Z"/></g>
<g><path style="opacity:1" fill="#cf9986" d="M 636.5,605.5 C 635.758,607.98 634.758,610.313 633.5,612.5C 632.66,614.853 631.326,616.853 629.5,618.5C 630.128,614.67 631.128,611.003 632.5,607.5C 629.635,607.055 627.135,607.722 625,609.5C 623.989,608.663 622.822,608.33 621.5,608.5C 621.762,614.324 619.262,618.324 614,620.5C 613.209,619.255 612.709,617.922 612.5,616.5C 614.368,617.674 615.368,617.007 615.5,614.5C 616.263,612.632 617.263,610.965 618.5,609.5C 619.812,608.855 620.812,607.855 621.5,606.5C 626.456,605.506 631.456,605.173 636.5,605.5 Z"/></g>
<g><path style="opacity:1" fill="#ce9783" d="M 340.5,592.5 C 344.833,592.5 349.167,592.5 353.5,592.5C 354.167,592.5 354.5,592.833 354.5,593.5C 356.562,598.625 358.896,603.625 361.5,608.5C 359.983,608.489 358.816,607.823 358,606.5C 355.419,602.544 353.586,598.211 352.5,593.5C 348.83,595.068 344.997,596.068 341,596.5C 339.956,612.848 339.789,629.181 340.5,645.5C 342.5,645.833 344.5,646.167 346.5,646.5C 348.287,635.592 349.287,624.592 349.5,613.5C 352.315,614.126 354.815,615.46 357,617.5C 360.006,624.843 363.006,632.177 366,639.5C 368.075,641.648 370.408,641.982 373,640.5C 377.496,634.532 380.496,627.866 382,620.5C 383.886,619.07 385.553,617.403 387,615.5C 387.383,616.056 387.883,616.389 388.5,616.5C 387.766,617.708 387.433,619.041 387.5,620.5C 386.33,622.279 384.664,623.279 382.5,623.5C 382.662,625.527 382.495,627.527 382,629.5C 379.908,631.771 378.574,634.437 378,637.5C 377.667,637.167 377.333,636.833 377,636.5C 374.857,643.301 370.691,644.968 364.5,641.5C 363.341,637.849 361.674,634.515 359.5,631.5C 357.613,629.211 356.279,626.545 355.5,623.5C 352.877,614.306 351.544,613.973 351.5,622.5C 353.068,631.908 352.734,641.241 350.5,650.5C 346.211,652.058 342.211,651.724 338.5,649.5C 338.5,630.833 338.5,612.167 338.5,593.5C 338.842,592.662 339.508,592.328 340.5,592.5 Z"/></g>
<g><path style="opacity:0.929" fill="#a96758" d="M 555.5,617.5 C 555.5,616.833 555.833,616.5 556.5,616.5C 559.518,616.335 562.518,616.502 565.5,617C 566.416,617.278 567.082,617.778 567.5,618.5C 563.455,617.07 559.788,617.737 556.5,620.5C 556.737,619.209 556.404,618.209 555.5,617.5 Z"/></g>
<g><path style="opacity:0.243" fill="#733728" d="M 355.5,623.5 C 354.21,622.942 353.377,621.942 353,620.5C 352.722,621.416 352.222,622.082 351.5,622.5C 351.544,613.973 352.877,614.306 355.5,623.5 Z"/></g>
<g><path style="opacity:0.098" fill="#78342c" d="M 529.5,616.5 C 528.859,617.482 528.193,618.482 527.5,619.5C 528.193,620.518 528.859,621.518 529.5,622.5C 522.833,620.5 522.833,618.5 529.5,616.5 Z"/></g>
<g><path style="opacity:0.992" fill="#d4a28b" d="M 555.5,617.5 C 556.404,618.209 556.737,619.209 556.5,620.5C 556.5,621.167 556.167,621.5 555.5,621.5C 554.883,621.611 554.383,621.944 554,622.5C 553.195,625.696 553.362,628.696 554.5,631.5C 555.11,632.391 555.443,633.391 555.5,634.5C 556.786,638.153 559.453,639.82 563.5,639.5C 568.377,639.619 571.044,637.286 571.5,632.5C 571.5,632.167 571.5,631.833 571.5,631.5C 572.989,627.405 572.489,623.405 570,619.5C 569.329,618.748 568.496,618.414 567.5,618.5C 567.082,617.778 566.416,617.278 565.5,617C 562.518,616.502 559.518,616.335 556.5,616.5C 556.611,615.883 556.944,615.383 557.5,615C 561.179,614.165 564.845,613.332 568.5,612.5C 573.25,616.9 575.583,622.4 575.5,629C 573.23,632.041 572.063,635.541 572,639.5C 565.196,644.986 558.863,644.653 553,638.5C 551.309,633.168 549.809,627.835 548.5,622.5C 550.781,620.649 553.115,618.982 555.5,617.5 Z M 567.5,618.5 C 570.828,622.172 572.162,626.505 571.5,631.5C 571.5,631.833 571.5,632.167 571.5,632.5C 566.962,639.541 561.629,640.208 555.5,634.5C 555.443,633.391 555.11,632.391 554.5,631.5C 554.342,628.098 554.676,624.764 555.5,621.5C 556.167,621.5 556.5,621.167 556.5,620.5C 559.788,617.737 563.455,617.07 567.5,618.5 Z"/></g>
<g><path style="opacity:0.935" fill="#b4735f" d="M 375.5,615.5 C 375.5,616.833 375.5,618.167 375.5,619.5C 375.649,620.552 375.483,621.552 375,622.5C 372.034,627.941 369.868,627.607 368.5,621.5C 369.458,621.953 370.292,622.619 371,623.5C 372.274,620.609 373.774,617.942 375.5,615.5 Z"/></g>
<g><path style="opacity:0.984" fill="#ce9783" d="M 423.5,606.5 C 423.5,606.833 423.5,607.167 423.5,607.5C 419.833,607.5 416.167,607.5 412.5,607.5C 411.923,610.55 413.09,612.55 416,613.5C 416.179,616.553 416.679,619.553 417.5,622.5C 418.451,621.674 419.451,621.508 420.5,622C 419.446,623.388 419.28,624.888 420,626.5C 423.21,634.489 426.043,642.655 428.5,651C 428.333,651.833 428.167,652.667 428,653.5C 424.346,656.675 420.179,658.675 415.5,659.5C 415.715,657.821 415.048,656.821 413.5,656.5C 413.5,655.5 413.5,654.5 413.5,653.5C 414.5,653.5 415.5,653.5 416.5,653.5C 418.5,653.5 420.5,653.5 422.5,653.5C 424.95,653.126 425.95,651.626 425.5,649C 425.607,646.779 424.94,644.946 423.5,643.5C 422.662,643.158 422.328,642.492 422.5,641.5C 422.696,637.394 421.363,634.061 418.5,631.5C 417.597,627.111 415.931,623.111 413.5,619.5C 413.33,618.178 413.663,617.011 414.5,616C 412.249,612.934 409.915,610.1 407.5,607.5C 407.577,606.25 408.244,605.417 409.5,605C 411.333,604.833 413.167,604.667 415,604.5C 418.15,604.36 420.983,605.027 423.5,606.5 Z"/></g>
<g><path style="opacity:1" fill="#c98d7f" d="M 531.5,613.5 C 531.573,615.027 530.906,616.027 529.5,616.5C 522.833,618.5 522.833,620.5 529.5,622.5C 535.723,628.168 536.89,634.835 533,642.5C 530.965,645.098 528.465,647.098 525.5,648.5C 525.423,647.25 524.756,646.417 523.5,646C 525.134,645.506 526.801,645.34 528.5,645.5C 528.615,643.053 529.615,641.053 531.5,639.5C 532.748,638.666 533.415,637.333 533.5,635.5C 532.482,632.273 531.649,628.94 531,625.5C 528.48,624.793 525.98,623.96 523.5,623C 522.065,620.733 522.398,618.733 524.5,617C 526.757,615.55 529.09,614.383 531.5,613.5 Z"/></g>
<g><path style="opacity:1" fill="#d1a68c" d="M 495.5,595.5 C 505.933,593.615 516.266,594.448 526.5,598C 527.333,600.167 528.833,601.667 531,602.5C 531.499,606.152 531.665,609.818 531.5,613.5C 529.09,614.383 526.757,615.55 524.5,617C 522.398,618.733 522.065,620.733 523.5,623C 525.98,623.96 528.48,624.793 531,625.5C 531.649,628.94 532.482,632.273 533.5,635.5C 533.415,637.333 532.748,638.666 531.5,639.5C 531.276,635.821 530.942,632.154 530.5,628.5C 528.436,628.687 526.436,629.187 524.5,630C 523.37,633.81 521.37,637.143 518.5,640C 515.367,639.954 512.7,640.954 510.5,643C 504.804,643.83 499.137,643.663 493.5,642.5C 493.167,641.833 492.833,641.167 492.5,640.5C 493.09,626.507 493.756,614.507 494.5,604.5C 495.833,604.5 497.167,604.5 498.5,604.5C 498.203,608.767 498.536,612.934 499.5,617C 505.629,617.823 511.629,617.323 517.5,615.5C 516.158,616.793 514.491,617.626 512.5,618C 509.242,618.212 506.076,618.712 503,619.5C 502.405,620.899 502.572,622.232 503.5,623.5C 507.121,624.013 510.454,625.013 513.5,626.5C 508.833,626.5 504.167,626.5 499.5,626.5C 498.035,627.406 497.035,628.739 496.5,630.5C 497.417,633.758 497.751,637.091 497.5,640.5C 504.133,639.786 510.8,639.286 517.5,639C 520.792,636.588 521.959,633.421 521,629.5C 519.211,627.771 517.044,627.104 514.5,627.5C 514.5,627.167 514.5,626.833 514.5,626.5C 516.833,626.5 519.167,626.5 521.5,626.5C 520.181,622.923 520.514,619.59 522.5,616.5C 525.408,615.422 527.908,613.755 530,611.5C 530.667,608.833 530.667,606.167 530,603.5C 527.078,600.498 523.578,598.332 519.5,597C 511.561,595.679 503.561,595.179 495.5,595.5 Z M 512.5,605.5 C 513.391,606.11 514.391,606.443 515.5,606.5C 516.833,608.833 516.833,611.167 515.5,613.5C 514.508,613.328 513.842,613.662 513.5,614.5C 509.167,614.5 504.833,614.5 500.5,614.5C 500.5,611.5 500.5,608.5 500.5,605.5C 504.5,605.5 508.5,605.5 512.5,605.5 Z M 514.5,627.5 C 515.694,628.272 516.694,629.272 517.5,630.5C 518.091,633.675 517.091,636.009 514.5,637.5C 509.833,637.5 505.167,637.5 500.5,637.5C 500.5,634.167 500.5,630.833 500.5,627.5C 505.167,627.5 509.833,627.5 514.5,627.5 Z"/></g>
<g><path style="opacity:0.096" fill="#6d2319" d="M 499.5,604.5 C 504.032,604.182 508.366,604.515 512.5,605.5C 508.5,605.5 504.5,605.5 500.5,605.5C 500.5,608.5 500.5,611.5 500.5,614.5C 504.833,614.5 509.167,614.5 513.5,614.5C 509.03,615.486 504.363,615.819 499.5,615.5C 499.5,611.833 499.5,608.167 499.5,604.5 Z"/></g>
<g><path style="opacity:0.22" fill="#8a453a" d="M 515.5,606.5 C 516.947,607.134 517.613,608.301 517.5,610C 517.613,611.699 516.947,612.866 515.5,613.5C 516.833,611.167 516.833,608.833 515.5,606.5 Z"/></g>
<g><path style="opacity:0.22" fill="#804031" d="M 567.5,618.5 C 568.496,618.414 569.329,618.748 570,619.5C 572.489,623.405 572.989,627.405 571.5,631.5C 572.162,626.505 570.828,622.172 567.5,618.5 Z"/></g>
<g><path style="opacity:0.165" fill="#90423b" d="M 413.5,619.5 C 415.931,623.111 417.597,627.111 418.5,631.5C 416.069,627.889 414.403,623.889 413.5,619.5 Z"/></g>
<g><path style="opacity:0.196" fill="#874038" d="M 541.5,615.5 C 539.289,622.714 538.956,630.047 540.5,637.5C 536.332,629.988 536.666,622.655 541.5,615.5 Z"/></g>
<g><path style="opacity:0.993" fill="#ce9785" d="M 544.5,613.5 C 543.321,616.371 543.321,619.204 544.5,622C 543.584,622.374 542.75,622.874 542,623.5C 541.333,626.167 541.333,628.833 542,631.5C 545.789,634.095 547.622,637.428 547.5,641.5C 550.64,643.473 553.64,645.64 556.5,648C 559.5,648.667 562.5,648.667 565.5,648C 568.447,645.836 571.781,645.002 575.5,645.5C 575.5,646.5 575.5,647.5 575.5,648.5C 564.634,653.23 554.3,652.064 544.5,645C 542.46,642.815 541.126,640.315 540.5,637.5C 538.956,630.047 539.289,622.714 541.5,615.5C 542.5,614.833 543.5,614.167 544.5,613.5 Z"/></g>
<g><path style="opacity:0.035" fill="#7c342f" d="M 454.5,614.5 C 453.262,619.895 451.262,624.895 448.5,629.5C 448.833,627.5 449.167,625.5 449.5,623.5C 450.983,620.372 452.649,617.372 454.5,614.5 Z"/></g>
<g><path style="opacity:0.208" fill="#9e5549" d="M 584.5,615.5 C 585.966,616.347 586.8,617.68 587,619.5C 587.816,624.684 587.65,629.684 586.5,634.5C 586.672,628.059 586.006,621.726 584.5,615.5 Z"/></g>
<g><path style="opacity:0.11" fill="#8a4038" d="M 390.5,616.5 C 390.828,627.346 390.494,638.013 389.5,648.5C 389.666,638.828 389.5,629.161 389,619.5C 388.617,620.056 388.117,620.389 387.5,620.5C 387.433,619.041 387.766,617.708 388.5,616.5C 389.167,615.167 389.833,615.167 390.5,616.5 Z"/></g>
<g><path style="opacity:0.11" fill="#884139" d="M 555.5,621.5 C 554.676,624.764 554.342,628.098 554.5,631.5C 553.362,628.696 553.195,625.696 554,622.5C 554.383,621.944 554.883,621.611 555.5,621.5 Z"/></g>
<g><path style="opacity:0.918" fill="#b67765" d="M 601.5,623.5 C 602.15,623.804 602.817,624.137 603.5,624.5C 604.652,627.106 604.818,629.773 604,632.5C 601.982,633.223 600.148,634.223 598.5,635.5C 599.391,633.391 600.558,631.391 602,629.5C 602.49,627.455 602.323,625.455 601.5,623.5 Z"/></g>
<g><path style="opacity:0.654" fill="#c78b79" d="M 389.5,648.5 C 390.494,638.013 390.828,627.346 390.5,616.5C 391.15,616.804 391.817,617.137 392.5,617.5C 393.434,620.267 394.1,623.1 394.5,626C 393.423,633.141 393.256,640.307 394,647.5C 396.132,648.78 398.298,648.78 400.5,647.5C 401.499,630.513 401.833,613.513 401.5,596.5C 397.641,595.715 393.975,595.882 390.5,597C 389,599.833 386.833,602 384,603.5C 383.424,605.377 383.591,607.211 384.5,609C 381.581,612.744 378.581,616.244 375.5,619.5C 375.5,618.167 375.5,616.833 375.5,615.5C 379.044,612.413 381.044,608.413 381.5,603.5C 381.328,602.508 381.662,601.842 382.5,601.5C 384.008,599.819 385.008,597.819 385.5,595.5C 387.649,592.185 390.815,590.851 395,591.5C 398.575,591.078 401.575,592.078 404,594.5C 404.667,613.167 404.667,631.833 404,650.5C 400.927,651.617 397.76,651.784 394.5,651C 392.347,650.901 390.681,650.067 389.5,648.5 Z"/></g>
<g><path style="opacity:1" fill="#c58474" d="M 629.5,618.5 C 627.918,621.335 626.585,624.335 625.5,627.5C 627.518,631.177 629.518,634.844 631.5,638.5C 631.557,639.609 631.89,640.609 632.5,641.5C 629.227,638.989 626.394,635.989 624,632.5C 623.596,627.735 624.096,623.069 625.5,618.5C 626.833,618.5 628.167,618.5 629.5,618.5 Z"/></g>
<g><path style="opacity:0.853" fill="#cf9382" d="M 499.5,626.5 C 499.5,630.5 499.5,634.5 499.5,638.5C 504.695,638.821 509.695,638.487 514.5,637.5C 515.822,637.67 516.989,637.337 518,636.5C 518.789,634.288 518.622,632.288 517.5,630.5C 516.694,629.272 515.694,628.272 514.5,627.5C 517.044,627.104 519.211,627.771 521,629.5C 521.959,633.421 520.792,636.588 517.5,639C 510.8,639.286 504.133,639.786 497.5,640.5C 497.751,637.091 497.417,633.758 496.5,630.5C 497.035,628.739 498.035,627.406 499.5,626.5 Z M 514.5,627.5 C 515.694,628.272 516.694,629.272 517.5,630.5C 518.091,633.675 517.091,636.009 514.5,637.5C 509.833,637.5 505.167,637.5 500.5,637.5C 500.5,634.167 500.5,630.833 500.5,627.5C 505.167,627.5 509.833,627.5 514.5,627.5 Z"/></g>
<g><path style="opacity:0.165" fill="#9c574c" d="M 418.5,631.5 C 421.363,634.061 422.696,637.394 422.5,641.5C 420.597,638.47 419.263,635.137 418.5,631.5 Z"/></g>
<g><path style="opacity:0.122" fill="#7a302b" d="M 517.5,630.5 C 518.622,632.288 518.789,634.288 518,636.5C 516.989,637.337 515.822,637.67 514.5,637.5C 517.091,636.009 518.091,633.675 517.5,630.5 Z"/></g>
<g><path style="opacity:0.188" fill="#954a41" d="M 571.5,632.5 C 571.044,637.286 568.377,639.619 563.5,639.5C 559.453,639.82 556.786,638.153 555.5,634.5C 561.629,640.208 566.962,639.541 571.5,632.5 Z"/></g>
<g><path style="opacity:0.047" fill="#701e1a" d="M 499.5,626.5 C 504.167,626.5 508.833,626.5 513.5,626.5C 513.833,626.5 514.167,626.5 514.5,626.5C 514.5,626.833 514.5,627.167 514.5,627.5C 509.833,627.5 505.167,627.5 500.5,627.5C 500.5,630.833 500.5,634.167 500.5,637.5C 505.167,637.5 509.833,637.5 514.5,637.5C 509.695,638.487 504.695,638.821 499.5,638.5C 499.5,634.5 499.5,630.5 499.5,626.5 Z"/></g>
<g><path style="opacity:0.2" fill="#974e46" d="M 359.5,631.5 C 361.674,634.515 363.341,637.849 364.5,641.5C 364.5,641.833 364.5,642.167 364.5,642.5C 362.043,639.249 360.376,635.582 359.5,631.5 Z"/></g>
<g><path style="opacity:1" fill="#cda98b" d="M 423.5,607.5 C 423.5,608.5 423.5,609.5 423.5,610.5C 426.046,618.456 428.379,626.456 430.5,634.5C 430.152,636.697 429.152,638.53 427.5,640C 428.354,641.022 429.354,641.855 430.5,642.5C 431.474,640.257 431.808,637.924 431.5,635.5C 433.144,635.714 434.644,635.38 436,634.5C 437.333,631.833 438.667,629.167 440,626.5C 439.833,620.167 442.333,615.167 447.5,611.5C 448.406,615.135 449.073,619.135 449.5,623.5C 448.883,623.611 448.383,623.944 448,624.5C 447.667,626.833 447.333,629.167 447,631.5C 445.667,632.167 444.667,633.167 444,634.5C 443.545,637.854 443.045,641.187 442.5,644.5C 441.178,644.33 440.011,644.663 439,645.5C 437.794,649.45 436.794,653.45 436,657.5C 435.667,657.167 435.333,656.833 435,656.5C 434.302,657.691 433.469,658.691 432.5,659.5C 429.09,662.539 425.09,664.539 420.5,665.5C 414.875,665.197 412.542,662.197 413.5,656.5C 415.048,656.821 415.715,657.821 415.5,659.5C 420.179,658.675 424.346,656.675 428,653.5C 428.167,652.667 428.333,651.833 428.5,651C 426.043,642.655 423.21,634.489 420,626.5C 419.28,624.888 419.446,623.388 420.5,622C 419.451,621.508 418.451,621.674 417.5,622.5C 416.679,619.553 416.179,616.553 416,613.5C 413.09,612.55 411.923,610.55 412.5,607.5C 416.167,607.5 419.833,607.5 423.5,607.5 Z"/></g>
<g><path style="opacity:0.341" fill="#88463b" d="M 436.5,623.5 C 436.494,626.85 435.494,629.85 433.5,632.5C 431.016,630.464 430.016,627.798 430.5,624.5C 431.41,626.019 432.243,627.685 433,629.5C 434.459,627.568 435.625,625.568 436.5,623.5 Z"/></g>
<g><path style="opacity:0.361" fill="#964841" d="M 427.5,616.5 C 428.871,618.936 429.871,621.603 430.5,624.5C 428.345,622.383 427.345,619.716 427.5,616.5 Z"/></g>
<g><path style="opacity:0.129" fill="#6b3d2b" d="M 615.5,640.5 C 614.609,639.89 613.609,639.557 612.5,639.5C 613.86,636.985 614.86,637.318 615.5,640.5 Z"/></g>
<g><path style="opacity:0.847" fill="#ae6457" d="M 598.5,635.5 C 598.233,639.713 596.233,642.713 592.5,644.5C 593.759,640.975 595.759,637.975 598.5,635.5 Z"/></g>
<g><path style="opacity:0.055" fill="#732420" d="M 631.5,638.5 C 635.01,641.358 637.343,645.024 638.5,649.5C 636.5,646.833 634.5,644.167 632.5,641.5C 631.89,640.609 631.557,639.609 631.5,638.5 Z"/></g>
<g><path style="opacity:0.545" fill="#c17e72" d="M 387.5,620.5 C 384.36,629.085 380.36,637.252 375.5,645C 372.833,645.667 370.167,645.667 367.5,645C 366.058,644.623 365.058,643.79 364.5,642.5C 364.5,642.167 364.5,641.833 364.5,641.5C 370.691,644.968 374.857,643.301 377,636.5C 377.333,636.833 377.667,637.167 378,637.5C 378.574,634.437 379.908,631.771 382,629.5C 382.495,627.527 382.662,625.527 382.5,623.5C 384.664,623.279 386.33,622.279 387.5,620.5 Z"/></g>
<g><path style="opacity:0.584" fill="#a96959" d="M 586.5,634.5 C 586.365,638.438 584.865,641.772 582,644.5C 580.028,646.232 577.861,647.565 575.5,648.5C 575.5,647.5 575.5,646.5 575.5,645.5C 577.5,644.833 579.5,644.167 581.5,643.5C 583.348,640.645 585.015,637.645 586.5,634.5 Z"/></g>
<g><path style="opacity:0.937" fill="#c48578" d="M 615.5,640.5 C 616.552,640.351 617.552,640.517 618.5,641C 621.593,647.546 626.593,649.713 633.5,647.5C 632.652,645.591 632.318,643.591 632.5,641.5C 634.5,644.167 636.5,646.833 638.5,649.5C 636.257,650.812 633.59,651.478 630.5,651.5C 622.142,652.481 617.142,648.814 615.5,640.5 Z"/></g>
<g><path style="opacity:0.129" fill="#7f3a30" d="M 423.5,643.5 C 424.94,644.946 425.607,646.779 425.5,649C 425.95,651.626 424.95,653.126 422.5,653.5C 424.781,650.454 425.115,647.121 423.5,643.5 Z"/></g>
<g><path style="opacity:0.027" fill="#702723" d="M 592.5,644.5 C 592.123,646.258 591.456,647.925 590.5,649.5C 594.783,650.492 599.116,650.826 603.5,650.5C 599.03,651.486 594.363,651.819 589.5,651.5C 589.166,648.509 590.166,646.176 592.5,644.5 Z"/></g>
<g><path style="opacity:0.655" fill="#b46f64" d="M 416.5,653.5 C 415.5,653.5 414.5,653.5 413.5,653.5C 413.5,654.5 413.5,655.5 413.5,656.5C 411.331,658.34 409.998,660.674 409.5,663.5C 408.876,663.083 408.543,662.416 408.5,661.5C 409.389,658.721 410.556,656.055 412,653.5C 413.616,652.199 415.116,652.199 416.5,653.5 Z"/></g>
<g><path style="opacity:0.827" fill="#c08173" d="M 449.5,623.5 C 449.167,625.5 448.833,627.5 448.5,629.5C 445.502,638.992 442.002,648.325 438,657.5C 436.334,660.331 434.168,662.664 431.5,664.5C 431.629,662.784 431.962,661.117 432.5,659.5C 433.469,658.691 434.302,657.691 435,656.5C 435.333,656.833 435.667,657.167 436,657.5C 436.794,653.45 437.794,649.45 439,645.5C 440.011,644.663 441.178,644.33 442.5,644.5C 443.045,641.187 443.545,637.854 444,634.5C 444.667,633.167 445.667,632.167 447,631.5C 447.333,629.167 447.667,626.833 448,624.5C 448.383,623.944 448.883,623.611 449.5,623.5 Z"/></g>
<g><path style="opacity:0.629" fill="#cc917f" d="M 413.5,656.5 C 412.542,662.197 414.875,665.197 420.5,665.5C 425.09,664.539 429.09,662.539 432.5,659.5C 431.962,661.117 431.629,662.784 431.5,664.5C 423.95,668.678 416.617,668.344 409.5,663.5C 409.998,660.674 411.331,658.34 413.5,656.5 Z"/></g>
</svg>
